<svg width="48" height="28" viewBox="0 0 48 28" fill="none" xmlns="http://www.w3.org/2000/svg">
<g clip-path="url(#clip0_1229_1080)">
<path d="M48.202 23.183C48.2893 23.3364 48.2893 23.5243 48.202 23.6777L45.7753 27.9417C45.7548 27.9778 45.7166 28 45.6751 28C45.6337 28 45.5954 27.9778 45.5749 27.9417L43.0084 23.4304L40.3412 18.7447L37.8148 14.3063C37.7275 14.153 37.7275 13.965 37.8148 13.8116L40.3412 9.37233L42.583 5.43399C42.7727 5.10066 42.532 4.68664 42.1485 4.68664H6.53709C6.15355 4.68664 5.91282 5.10066 6.10255 5.43399L8.34434 9.37233L11.0115 14.059L13.6759 18.7447L16.344 23.4304L18.5186 27.2528C18.7082 27.5861 18.4675 28 18.084 28H3.23415C3.0544 28 2.88849 27.9035 2.79959 27.7473L0.483533 23.6777C0.396266 23.5243 0.396274 23.3364 0.483554 23.183L2.57543 19.5081C2.76718 19.1712 3.25274 19.1712 3.4445 19.5081L5.53333 23.1777C5.62224 23.3339 5.78814 23.4304 5.96787 23.4304H10.15C10.5335 23.4304 10.7742 23.0165 10.5846 22.6831L8.3448 18.7455C8.34451 18.745 8.34398 18.7447 8.3434 18.7447C8.34282 18.7447 8.34229 18.7444 8.342 18.7439L5.67715 14.059L0.483536 4.93396C0.396266 4.78063 0.396262 4.59266 0.483524 4.43932L2.86615 0.252692C2.95506 0.096476 3.12097 0 3.30071 0H45.3848C45.5646 0 45.7305 0.0964766 45.8194 0.252693L48.202 4.43932C48.2893 4.59266 48.2893 4.78063 48.202 4.93396L43.1492 13.8116C43.0619 13.965 43.0619 14.153 43.1492 14.3063L48.202 23.183Z" fill="#3184D0"/>
<path d="M33.7599 9.80005C34.1453 9.80005 34.3858 10.2177 34.1924 10.551L29.3137 18.9572L26.6579 23.5353L24.0998 27.9427C24.0791 27.9782 24.0412 28 24.0001 28C23.9591 28 23.9211 27.9782 23.9005 27.9427L21.3424 23.5353L18.6875 18.9572L13.8071 10.5511C13.6136 10.2178 13.8541 9.80005 14.2395 9.80005H18.3994C18.5777 9.80005 18.7425 9.895 18.832 10.0493L21.3424 14.3791L23.5677 18.2123C23.7604 18.5443 24.2398 18.5443 24.4325 18.2123L26.6579 14.3791L29.1692 10.0492C29.2587 9.89497 29.4235 9.80005 29.6017 9.80005H33.7599Z" fill="#3184D0"/>
<path d="M35.0381 27.7272C34.9526 27.8946 34.7806 28 34.5927 28H30.6449C30.2714 28 30.0297 27.6052 30.1996 27.2725L32.2993 23.1614L34.3893 19.0715C34.575 18.7082 35.0943 18.7082 35.2799 19.0717L37.2522 22.9341C37.3251 23.0768 37.3252 23.2459 37.2523 23.3887L35.0381 27.7272Z" fill="#3184D0"/>
</g>
<defs>
<clipPath id="clip0_1229_1080">
<rect width="48" height="28" fill="white"/>
</clipPath>
</defs>
</svg>
