<svg width="90" height="70" viewBox="0 0 90 70" fill="none" xmlns="http://www.w3.org/2000/svg">
<path fill-rule="evenodd" clip-rule="evenodd" d="M69.5663 62.6832L44.7017 69.5765L19.9056 62.6929L14.3799 0.715698H75.0978L69.5663 62.6832ZM44.7393 28.7697H27.0479L27.7291 36.3708H44.7129L54.073 36.3709L53.1907 46.2292L44.7129 48.5174L44.7056 48.5199L36.24 46.234L35.6988 40.1716H28.0684L29.1333 52.1067L44.7039 56.4292L44.7389 56.4195V56.4184L60.2959 52.1068L62.1964 30.8109L62.3819 28.7698L63.7541 13.3846H44.7391V20.986L55.4238 20.986L54.7322 28.7698L44.7393 28.7697ZM44.7129 20.986L26.3697 20.986L25.6787 13.3846H44.7128L44.7129 20.986ZM44.7389 56.4184V48.511L44.7129 48.5174V56.4256L44.7389 56.4184ZM44.7393 28.7697V36.3708H44.7129V28.7698L44.7393 28.7697Z" fill="#759BB0" fill-opacity="0.7"/>
</svg>
