<svg width="90" height="70" viewBox="0 0 90 70" fill="none" xmlns="http://www.w3.org/2000/svg">
<path d="M45.2213 23.3527H56.8557C63.2809 23.3527 68.5162 18.1439 68.5162 11.6923C68.5162 5.26716 63.3073 0.0318604 56.8557 0.0318604H45.1953V0.0583013L33.5608 0.0583496C27.1092 0.0583496 21.9004 5.26721 21.9004 11.7188C21.9004 17.9568 26.8103 23.0733 33.0005 23.366C26.8103 23.6587 21.9004 28.7752 21.9004 35.0132C21.9004 41.2512 26.8103 46.3677 33.0004 46.6604C26.8103 46.9532 21.9004 52.0696 21.9004 58.3077C21.9004 64.7592 27.1092 69.9681 33.5608 69.9681C40.0124 69.9681 45.2213 64.7328 45.2213 58.3077V35.7947C45.6252 41.8575 50.6932 46.6737 56.8557 46.6737C63.3073 46.6737 68.5162 41.4384 68.5162 35.0132C68.5162 28.5616 63.2809 23.3527 56.8557 23.3527C50.6685 23.3527 45.6242 28.1679 45.2213 34.2299V23.3527Z" fill="#759BB0" fill-opacity="0.7"/>
</svg>
