<svg width="90" height="70" viewBox="0 0 90 70" fill="none" xmlns="http://www.w3.org/2000/svg">
<path d="M59.1027 19.1401C55.5189 15.7089 50.6389 13.8026 45.6827 13.8789C36.5327 13.8789 28.8315 19.9788 26.0102 28.2899C24.5614 32.6362 24.5617 37.364 26.0105 41.7102L14.4644 50.6737L26.0101 41.7865C28.8314 50.0215 36.5326 56.1978 45.6827 56.1978C50.4102 56.1978 54.4514 54.9778 57.5777 52.8428L57.7184 52.9512L57.5788 52.8427C61.315 50.4027 63.8313 46.5902 64.5938 42.2439H45.6837V28.7476H78.7001C79.0813 31.0351 79.3101 33.4751 79.3101 35.8389C79.3101 46.4377 75.4976 55.4352 68.8638 61.6115L68.8183 61.5761C63.0272 66.8888 55.1136 69.9991 45.6827 69.9991C32.4151 69.9991 20.3676 62.5266 14.4201 50.7078C9.46394 40.8716 9.46424 29.2053 14.4204 19.2929C20.3679 7.47409 32.4151 0.00133079 45.6827 0.00133079C54.3752 -0.0749194 62.7627 3.12759 69.0915 9.0751L59.1027 19.1401Z" fill="#759BB0" fill-opacity="0.7"/>
</svg>
