<svg width="90" height="70" viewBox="0 0 90 70" fill="none" xmlns="http://www.w3.org/2000/svg">
<path fill-rule="evenodd" clip-rule="evenodd" d="M75.8471 0.520874L70.2835 62.8484L45.2744 69.7816L20.3343 62.858L14.7764 0.520874H75.8471ZM34.4961 20.9088H45.2854V13.2634H26.1406L28.2027 36.3832H45.2854V28.7378H35.1948L34.4961 20.9088ZM45.3117 28.7378H63.057L62.8705 30.7908L60.9587 52.2105L45.3117 56.5469V48.5938L45.2852 48.6008L53.8122 46.2988L54.6999 36.3832H45.3117V28.7378ZM45.2852 48.6008L45.2782 48.6026L36.7636 46.3035L36.2192 40.206H28.5443L29.6154 52.2105L45.2765 56.5578L45.3117 56.5482V56.5469L45.2852 56.5542V48.6008ZM45.3117 13.2634V20.9088H63.7527L64.4371 13.2634H45.3117Z" fill="#759BB0" fill-opacity="0.7"/>
</svg>
