<svg width="90" height="70" viewBox="0 0 90 70" fill="none" xmlns="http://www.w3.org/2000/svg">
<path fill-rule="evenodd" clip-rule="evenodd" d="M45.6052 70H44.0134C43.7142 69.9375 43.4176 69.8532 43.1258 69.7702C43.005 69.7359 42.885 69.7018 42.7661 69.6696C35.0813 67.4601 27.3966 65.2714 19.6981 63.1448C17.6957 42.1965 15.8108 21.2275 14.1123 0.251531C18.0693 0.0848371 22.0309 0.137162 25.9931 0.189494C28.9237 0.228202 31.8547 0.266915 34.7844 0.217009C40.25 0.0432641 45.7119 0.0979399 51.178 0.152657C53.3146 0.174045 55.4518 0.195439 57.5901 0.2032C59.8889 0.208461 62.1878 0.205705 64.4867 0.202949C68.2224 0.198471 71.958 0.193993 75.6937 0.223913L75.2237 5.40544C73.4805 24.6198 71.7372 43.835 70.1218 63.0619C65.1347 64.4801 60.145 65.8852 55.1559 67.2901L55.1444 67.2933C52.0488 68.165 48.9536 69.0366 45.8593 69.9112C45.7748 69.9462 45.6901 69.9756 45.6052 70ZM32.8294 45.0452C34.0134 45.3847 35.1977 45.7243 36.3863 46.0492C36.423 41.624 36.41 37.1977 36.397 32.7716C36.3782 26.3899 36.3594 20.0088 36.4899 13.6325C37.2632 13.6491 38.0365 13.6634 38.8098 13.6778C39.9697 13.6993 41.1297 13.7209 42.2896 13.7499C42.2647 20.8096 42.2692 27.8711 42.2737 34.9325C42.2779 41.5524 42.2821 48.1722 42.262 54.7903C39.2098 54.0619 36.1924 53.2055 33.1749 52.3491C30.3289 51.5414 27.4825 50.7335 24.6072 50.0331C24.331 47.6441 24.2896 45.2414 24.4069 42.8386C27.2478 43.4446 30.0381 44.2447 32.8294 45.0452ZM47.3584 40.4289C47.393 31.5358 47.3861 22.6359 47.3584 13.7429C51.5277 13.668 55.6997 13.6774 59.8709 13.6869C62.2344 13.6923 64.5981 13.6976 66.9604 13.6877C66.774 16.118 66.5323 18.5484 66.2561 20.9719C61.9339 20.965 57.6186 20.965 53.2963 20.965C53.2411 24.5968 53.248 28.2286 53.2825 31.8604C55.4841 31.7087 57.6737 31.44 59.8641 31.1712C61.7612 30.9384 63.659 30.7055 65.5657 30.5485C65.2901 33.5931 65.0612 36.6408 64.8325 39.6871C64.5799 43.0519 64.3274 46.4152 64.0121 49.7707C64.0529 50.4888 63.4137 50.6584 62.8261 50.8144C62.6171 50.8698 62.4146 50.9236 62.2515 50.9997C60.4976 51.4418 58.7489 51.9038 57.0002 52.3658C53.8061 53.2097 50.6119 54.0536 47.3861 54.7764C47.3654 52.3806 47.3723 49.9916 47.4344 47.6027C50.463 46.8587 53.4754 46.0502 56.4871 45.242C57.4165 44.9926 58.346 44.7431 59.2757 44.4956C59.3654 42.4243 59.4483 40.3529 59.5104 38.2816C59.0161 38.3718 58.5218 38.4623 58.0275 38.5527C54.4759 39.2027 50.922 39.8531 47.3584 40.4289Z" fill="#9DB9C8"/>
</svg>
