<svg width="90" height="70" viewBox="0 0 90 70" fill="none" xmlns="http://www.w3.org/2000/svg">
<path fill-rule="evenodd" clip-rule="evenodd" d="M11.4967 1.47599C11.9564 0.966457 12.6276 0.651367 13.3663 0.651367H77.0434C77.7841 0.651367 78.4503 0.966457 78.914 1.472C79.344 1.92569 79.6071 2.54689 79.6071 3.22593V31.3148C79.6071 31.6468 79.5465 31.9579 79.4303 32.2471C79.34 32.4844 79.2149 32.7008 79.061 32.8952C79.0302 32.9391 78.9964 32.977 78.9617 33.0169L49.6749 67.929C49.6749 67.933 49.6749 67.933 49.6709 67.933C48.5144 69.0506 46.9411 69.7415 45.2078 69.7418C43.4752 69.7418 41.9015 69.0513 40.7447 67.9335C40.743 67.9335 40.7419 67.9335 40.7412 67.9333C40.7398 67.9329 40.7398 67.9318 40.7398 67.9285L11.4967 33.0682C11.4813 33.0564 11.4692 33.0405 11.4574 33.0249L11.454 33.0204L11.3418 32.8867C11.3328 32.8778 11.3249 32.8698 11.316 32.8568C11.1789 32.6704 11.0628 32.468 10.9804 32.2476C10.8771 31.9844 10.8175 31.6992 10.8086 31.401V31.2285C10.8265 30.5814 11.0836 30.0021 11.4967 29.5614C11.9614 29.0558 12.6276 28.7407 13.3673 28.7407H19.6196L11.449 19.0086C11.4153 18.9687 11.3805 18.9258 11.3458 18.883C11.1958 18.6885 11.0707 18.4722 10.9804 18.2348C10.8771 17.9716 10.8175 17.6864 10.8086 17.3843V17.2118C10.8265 16.5686 11.0836 15.9893 11.4967 15.5496C11.9564 15.0401 12.6276 14.725 13.3673 14.725H19.6705L11.5136 5.0008L11.5005 4.98678C11.4923 4.97797 11.4847 4.96944 11.4788 4.96092C11.4232 4.90408 11.3716 4.84425 11.3249 4.77944C11.1948 4.61093 11.0876 4.42546 11.0052 4.22704L11.0003 4.21373C10.9938 4.19652 10.9875 4.17969 10.9843 4.16223C10.8771 3.89899 10.8165 3.61381 10.8086 3.31168V3.13918C10.8255 2.49903 11.0836 1.91272 11.4967 1.47599Z" fill="#759BB0" fill-opacity="0.7"/>
</svg>
