<svg width="90" height="70" viewBox="0 0 90 70" fill="none" xmlns="http://www.w3.org/2000/svg">
<path d="M52.2374 34.9361C52.2374 38.7971 49.1073 41.9272 45.2463 41.9272C41.3852 41.9272 38.2552 38.7971 38.2552 34.9361C38.2552 31.075 41.3852 27.945 45.2463 27.945C49.1073 27.945 52.2374 31.075 52.2374 34.9361Z" fill="#759BB0" fill-opacity="0.7"/>
<path fill-rule="evenodd" clip-rule="evenodd" d="M45.2843 9.99326C46.1207 9.16412 46.9553 8.38697 47.7838 7.66591C50.9948 4.87151 54.1643 2.89419 56.9849 1.85716C59.7775 0.830462 62.3857 0.672702 64.3213 1.78887C66.3289 2.94659 67.5504 5.40264 68.0694 8.5069C68.5937 11.6429 68.4349 15.611 67.5168 20.0678C67.3503 20.8765 67.1563 21.7028 66.9361 22.5442C68.071 22.8543 69.1601 23.1887 70.1977 23.5459C74.2225 24.9316 77.5188 26.6894 79.8263 28.6147C82.1108 30.521 83.5505 32.7016 83.5505 34.9361C83.5505 37.2535 82.0332 39.5386 79.6033 41.539C77.1486 43.5599 73.6318 45.4046 69.3121 46.8358C68.5992 47.072 67.8622 47.2958 67.1035 47.507C67.3609 48.473 67.5824 49.42 67.7655 50.3446C68.6243 54.6833 68.7162 58.5553 68.1476 61.6204C67.5846 64.6551 66.3404 67.0541 64.3768 68.1908C62.4661 69.297 59.9065 69.1942 57.1493 68.2241C54.3688 67.2458 51.2429 65.3399 48.0554 62.5969C47.1739 61.8384 46.2834 61.0132 45.3893 60.1271C44.6617 60.8542 43.9324 61.5385 43.2033 62.1758C39.8734 65.0866 36.5648 67.0999 33.6253 68.1381C30.7151 69.1659 28.0153 69.2861 26.0499 68.1528C24.137 67.0505 22.9478 64.7815 22.4114 61.9082C21.8704 59.0106 21.9604 55.3504 22.7449 51.219C22.9616 50.0777 23.2315 48.8952 23.5522 47.6794C22.5596 47.4125 21.6032 47.1229 20.6875 46.8099C16.5024 45.3795 13.1054 43.519 10.7376 41.4913C8.39329 39.4836 6.94043 37.2049 6.94043 34.9361C6.94043 32.7282 8.31183 30.5646 10.5328 28.6644C12.7724 26.7482 15.9879 24.9979 19.9586 23.6135C21.1073 23.213 22.3242 22.8405 23.6002 22.4981C23.2975 21.3534 23.0394 20.2366 22.8273 19.1533C22.0099 14.9759 21.8796 11.2422 22.3899 8.28057C22.895 5.34839 24.061 3.00991 25.9948 1.89052C28.0004 0.729402 30.7383 0.897692 33.6869 1.99837C36.6657 3.11031 40.0242 5.22968 43.4269 8.25101C44.045 8.79987 44.6646 9.3814 45.2843 9.99326ZM57.5587 3.41775C54.9817 4.36519 51.9842 6.21474 48.8754 8.92018C48.0727 9.61867 47.2627 10.3731 46.4494 11.1795C48.9407 13.7915 51.4165 16.8712 53.7795 20.2661C57.9153 20.6362 61.8138 21.2706 65.3262 22.1282C65.5397 21.3129 65.7274 20.5136 65.8882 19.7326C66.7782 15.4125 66.9107 11.6592 66.4295 8.78108C65.943 5.87118 64.8622 4.02015 63.4907 3.22925C62.1839 2.47567 60.1638 2.45999 57.5587 3.41775ZM51.6247 20.0988C49.5579 17.2229 47.4218 14.6125 45.2848 12.3675C43.137 14.6199 40.9809 17.2201 38.8935 20.0961C40.9706 19.9606 43.0947 19.8903 45.2448 19.8903H45.2461C47.412 19.8903 49.5441 19.9615 51.6247 20.0988ZM25.2119 22.0892C24.9165 20.973 24.6651 19.8859 24.459 18.8338C23.6677 14.7893 23.5623 11.2687 24.0284 8.56287C24.4997 5.82756 25.5222 4.08528 26.8278 3.32951C28.1979 2.5363 30.3414 2.52434 33.1054 3.5561C35.8392 4.57658 39.0246 6.56572 42.3229 9.49434C42.9199 10.0244 43.5193 10.5871 44.1197 11.18C41.6199 13.797 39.1207 16.8606 36.7321 20.2621C32.616 20.6262 28.7195 21.2486 25.2119 22.0892ZM24.0473 24.0996C22.8037 24.4329 21.6203 24.795 20.506 25.1835C16.6666 26.5221 13.6517 28.1842 11.6137 29.9278C9.55691 31.6875 8.60315 33.4312 8.60315 34.9361C8.60315 36.4935 9.62832 38.3522 11.8191 40.2284C13.9865 42.0845 17.1818 43.8545 21.2252 45.2366C22.1095 45.5387 23.0354 45.819 23.9984 46.0777C25.0264 42.5706 26.4508 38.8253 28.2196 35.0168C26.4692 31.2556 25.0655 27.5668 24.0473 24.0996ZM29.1554 33.0615C27.711 29.8266 26.5382 26.6693 25.6604 23.6915C28.6745 22.9724 31.9949 22.4152 35.5077 22.0501C34.4484 23.6365 33.4155 25.2878 32.4191 26.9942L32.416 26.9939L32.1504 27.4544C31.0762 29.3178 30.0758 31.1936 29.1554 33.0615ZM30.0569 35.016C31.0478 32.9287 32.1445 30.8216 33.3388 28.7249L33.5924 28.2852C34.89 26.0352 36.2508 23.8837 37.6505 21.8533C40.1143 21.6564 42.658 21.5531 45.2448 21.5531H45.2461C47.8474 21.5531 50.3949 21.6574 52.8566 21.8562C54.2465 23.8891 55.5978 26.0362 56.8885 28.2658C58.1846 30.5046 59.3859 32.7479 60.4716 34.9645C59.3961 37.206 58.1997 39.4718 56.8996 41.7261C55.6075 43.9667 54.2641 46.1274 52.8862 48.1747C50.4077 48.3628 47.8478 48.4584 45.2461 48.4584C42.6737 48.4584 40.1442 48.375 37.6948 48.206C36.2806 46.1611 34.9076 43.9984 33.6033 41.7456L33.5433 41.6419C32.2652 39.4281 31.1007 37.2091 30.0569 35.016ZM29.1571 36.9706C27.6926 40.2548 26.5002 43.4656 25.6123 46.483C28.6507 47.1954 32.0091 47.7104 35.5672 48.0357C34.9394 47.0996 34.3213 46.142 33.7152 45.1653V45.2573L32.1644 42.5788C31.0824 40.71 30.0784 38.8347 29.1571 36.9706ZM36.7844 49.8067C32.6334 49.4869 28.6997 48.9192 25.1646 48.0857C24.8515 49.271 24.5888 50.4214 24.3784 51.5291C23.6199 55.524 23.5535 58.9663 24.0458 61.603C24.5427 64.2641 25.5767 65.9611 26.8801 66.7122C28.2293 67.4903 30.3518 67.5309 33.0716 66.5703C35.7622 65.62 38.8919 63.7362 42.109 60.9239C42.813 60.3085 43.5189 59.6461 44.2246 58.9405C41.7115 56.3105 39.1901 53.2224 36.7844 49.8067ZM46.5468 58.9333C47.4181 59.7974 48.2844 60.6004 49.1399 61.3366C52.222 63.9889 55.171 65.7654 57.7011 66.6556C60.2545 67.554 62.2414 67.5058 63.5438 66.7518C64.8918 65.9715 65.9866 64.1531 66.5127 61.3171C67.0332 58.5114 66.9641 54.8593 66.1344 50.6675C65.9581 49.7769 65.7442 48.8626 65.4949 47.928C61.9514 48.7992 57.9947 49.4153 53.8139 49.7684C51.4719 53.1883 49.0247 56.298 46.5468 58.9333ZM66.6497 45.9074C67.3858 45.7026 68.0997 45.4859 68.7892 45.2575C72.9763 43.8702 76.2937 42.11 78.5465 40.2553C80.8242 38.3802 81.8878 36.5192 81.8878 34.9361C81.8878 33.4274 80.8922 31.6696 78.7611 29.8914C76.6529 28.1323 73.5532 26.4596 69.6564 25.1181C68.6513 24.7721 67.5942 24.4475 66.4905 24.1461C65.4792 27.585 64.0601 31.2409 62.3157 34.9569C64.1223 38.7218 65.6027 42.4218 66.6497 45.9074ZM61.3852 36.8827C62.8939 40.1442 64.1348 43.3266 65.0398 46.3276C61.9835 47.0756 58.5956 47.6327 55.0047 47.9894C56.1484 46.2413 57.2632 44.4238 58.34 42.5568C59.4277 40.6706 60.4464 38.7724 61.3852 36.8827ZM61.3693 33.0371C62.819 29.8267 64.0065 26.6886 64.8795 23.7307C61.8563 22.9954 58.5279 22.4265 54.9949 22.0549C56.1413 23.7832 57.2561 25.5819 58.3275 27.4327C59.4077 29.2985 60.4259 31.1726 61.3693 33.0371ZM45.3819 57.7449C43.2179 55.4755 41.0385 52.8478 38.9308 49.949C40.9983 50.0644 43.1105 50.1211 45.2461 50.1211C47.4227 50.1211 49.5751 50.0552 51.6804 49.9245C49.6273 52.8335 47.5101 55.476 45.3819 57.7449Z" fill="#759BB0" fill-opacity="0.7"/>
</svg>
