<svg width="90" height="70" viewBox="0 0 90 70" fill="none" xmlns="http://www.w3.org/2000/svg">
<path fill-rule="evenodd" clip-rule="evenodd" d="M73.1641 0H16.8359C13.0606 0 10 3.06055 10 6.83594V63.1641C10 66.9394 13.0606 70 16.8359 70H73.1641C76.9394 70 80 66.9394 80 63.1641V6.83594C80 3.06055 76.9394 0 73.1641 0ZM67.6186 9.09998H52.8311C51.0189 9.09998 49.5498 10.569 49.5498 12.3812V36.4437C49.5498 38.2559 51.0189 39.725 52.8311 39.725H67.6186C69.4307 39.725 70.8998 38.2559 70.8998 36.4437V12.3812C70.8998 10.569 69.4307 9.09998 67.6186 9.09998ZM22.3809 9.09998H37.1684C38.9805 9.09998 40.4496 10.569 40.4496 12.3812V53.9437C40.4496 55.7559 38.9805 57.225 37.1684 57.225H22.3809C20.5687 57.225 19.0996 55.7559 19.0996 53.9437V12.3812C19.0996 10.569 20.5687 9.09998 22.3809 9.09998Z" fill="#759BB0" fill-opacity="0.7"/>
</svg>
