<svg width="90" height="70" viewBox="0 0 90 70" fill="none" xmlns="http://www.w3.org/2000/svg">
<path fill-rule="evenodd" clip-rule="evenodd" d="M68.3689 0.00720215H22.0109C14.9824 0.00720215 9.2998 5.6898 9.2998 12.7183V57.2818C9.2998 64.3102 14.9824 69.9928 22.0109 69.9928H68.3689C75.3974 69.9928 81.08 64.3102 81.08 57.2818V12.7183C81.08 5.6898 75.3974 0.00720215 68.3689 0.00720215ZM38.0715 33.2055L47.0441 18.4009C47.1039 18.3411 47.1637 18.2214 47.1338 18.1915C47.1039 18.042 46.9543 17.9523 46.8048 17.9822H40.4941C40.3446 17.9523 40.2249 17.9822 40.1053 18.042C40.0156 18.1018 39.9558 18.2214 39.9259 18.3411C39.6573 18.8415 39.3888 19.3519 39.1182 19.8662C38.7258 20.612 38.3292 21.366 37.922 22.1095C37.2341 23.3656 36.5462 24.6219 35.8882 25.878C35.2302 27.1341 34.5723 28.4202 33.9442 29.7362H33.8844C33.2563 28.4501 32.5983 27.194 31.8805 25.9378C31.2686 24.9098 30.6968 23.8818 30.1158 22.8374C29.9869 22.6056 29.8575 22.373 29.7271 22.1394C29.0392 20.8534 28.3812 19.5673 27.813 18.2813C27.7232 18.1616 27.6335 18.0719 27.5139 18.0121C27.3942 17.9822 27.2447 17.9523 27.0951 17.9523H20.3059C20.1863 17.9523 20.0667 17.9822 20.0069 18.0719C19.947 18.1317 19.977 18.2513 20.0667 18.371L29.1289 33.714L19.8274 48.9673C19.7676 49.057 19.7377 49.1766 19.7676 49.2963C19.7676 49.4094 19.8189 49.4027 19.8957 49.3927C19.9204 49.3895 19.9478 49.386 19.977 49.386H26.5568C26.8858 49.386 27.1251 49.3561 27.2447 49.057C27.7033 48.2395 28.1619 47.3954 28.6205 46.5513C28.8498 46.1293 29.0791 45.7072 29.3084 45.2885C29.9663 44.0326 30.654 42.7467 31.3418 41.4609C32.0297 40.1748 32.7179 38.8881 33.346 37.6021H33.4058C34.1235 38.9177 34.8411 40.2035 35.5587 41.4893L35.5592 41.4902C36.277 42.7762 36.9649 44.0324 37.593 45.2586C37.907 45.8867 38.2285 46.5073 38.55 47.1279C38.8716 47.7485 39.1931 48.3691 39.5071 48.9972C39.7165 49.2963 40.0455 49.3262 40.524 49.3262H47.373C47.4424 49.3146 47.5028 49.3209 47.5525 49.3261C47.6315 49.3343 47.6837 49.3398 47.702 49.2663C47.7319 49.1467 47.702 49.0271 47.6422 48.9074L38.0715 33.2055ZM54.4314 48.6084C56.4353 49.5355 58.6485 49.9841 60.8617 49.9542C62.417 49.9542 63.9423 49.8047 65.4676 49.5355C67.1425 49.2364 68.7875 48.7579 70.3427 48.0999C70.5521 48.0102 70.6418 47.8307 70.6418 47.6214C70.6372 47.543 70.6326 47.4625 70.6278 47.38C70.6019 46.9278 70.5727 46.4179 70.5221 45.8867C70.5194 45.8265 70.5167 45.7667 70.514 45.7075C70.487 45.1197 70.4623 44.5812 70.4623 44.0922V15.5596C70.4324 15.44 70.3128 15.3203 70.1632 15.3502H64.0918C63.8825 15.3502 63.7928 15.4699 63.7928 15.6792V25.1303C63.6267 25.1164 63.4734 25.109 63.33 25.102C63.1635 25.094 63.0102 25.0865 62.8656 25.0705C62.5964 25.0406 62.3871 25.0405 62.2375 25.0405C59.2766 25.0405 56.7643 25.6088 54.6707 26.7752C52.6967 27.8519 51.0518 29.467 49.9153 31.411C48.8086 33.3252 48.2404 35.5085 48.2703 37.7217C48.2703 40.4434 48.8086 42.7164 49.9153 44.5408C50.992 46.3054 52.5472 47.741 54.4314 48.6084ZM63.7928 30.8129V43.9726C63.4339 44.0922 63.1049 44.152 62.7161 44.1221C62.3272 44.152 61.9085 44.1819 61.4599 44.1819C60.6225 44.1819 59.785 44.0623 58.9775 43.7931C58.1999 43.5538 57.512 43.1351 56.9437 42.5968C56.3456 41.9986 55.8969 41.2808 55.5979 40.4733C55.239 39.4863 55.0595 38.4395 55.0894 37.3927C55.0894 35.8375 55.4184 34.5514 56.0764 33.5944C56.7344 32.6373 57.6017 31.8896 58.6186 31.3811C59.6654 30.8428 60.8318 30.6035 61.9982 30.6035C62.3272 30.6035 62.6562 30.6334 62.9852 30.6633C63.2544 30.6932 63.5236 30.7531 63.7928 30.8129Z" fill="#759BB0" fill-opacity="0.7"/>
</svg>
