<svg width="30" height="30" viewBox="0 0 30 30" fill="none" xmlns="http://www.w3.org/2000/svg">
<path fill-rule="evenodd" clip-rule="evenodd" d="M2 0C0.895431 0 0 0.89543 0 2V28C0 29.1046 0.89543 30 2 30H28C29.1046 30 30 29.1046 30 28V2C30 0.895431 29.1046 0 28 0H2ZM5.00001 15.0006C4.99947 14.5847 5.02492 14.1714 5.0755 13.7628C5.07646 13.7541 5.07753 13.7456 5.07872 13.737C5.34436 11.636 6.27444 9.66187 7.75005 8.11246C8.6833 7.12791 9.80759 6.34407 11.0542 5.80891C11.1128 5.78375 11.1716 5.75916 11.2306 5.73515C11.2431 5.72976 11.2557 5.72467 11.2684 5.71987C12.454 5.24324 13.7208 4.99858 15 5.00001C16.3097 4.99846 17.607 5.25497 18.8176 5.75488C20.0282 6.25479 21.1284 6.9883 22.0555 7.9135C22.99 8.84171 23.7313 9.94584 24.2367 11.1622C24.7421 12.3785 25.0015 13.6829 25 15C25.0015 16.3171 24.7421 17.6215 24.2367 18.8378C23.7313 20.0542 22.9899 21.1584 22.0554 22.0866C21.1284 23.0117 20.0282 23.7452 18.8176 24.2451C17.6066 24.7452 16.309 25.0017 14.9988 25C12.2419 24.9997 9.74564 23.8838 7.9369 22.0791C7.93575 22.078 7.9346 22.0769 7.93345 22.0757C7.93027 22.0726 7.92713 22.0694 7.92401 22.0662C6.11739 20.2571 5.00018 17.7594 5.00001 15.0006ZM18.1236 7.43542C17.1335 7.02654 16.0724 6.8168 15.0012 6.81819H14.9989C14.4295 6.81749 13.8631 6.87641 13.3089 6.99309C14.2975 8.03217 15.5246 9.47549 16.5499 11.0848C17.971 10.2454 19.1996 9.25982 20.0384 8.55207C19.4551 8.09536 18.8111 7.71932 18.1236 7.43542ZM11.4041 7.64825C12.3825 8.61019 13.7928 10.1749 14.9285 11.9239C14.8839 11.9435 14.8391 11.963 14.7942 11.9821C13.4797 12.5435 11.7361 12.822 10.0552 12.9387C8.94019 13.0161 7.88787 13.0202 7.06439 12.9993C7.40472 11.6465 8.08961 10.3921 9.06733 9.36567L9.06895 9.36397C9.73942 8.65648 10.5305 8.07571 11.4041 7.64825ZM10.1812 14.7525C8.90797 14.8409 7.71705 14.8392 6.82008 14.8114C6.81874 14.8737 6.8181 14.9362 6.81819 14.9988L6.81819 15C6.81819 16.8982 7.46451 18.6453 8.54908 20.0334C9.95827 18.4649 12.3572 16.47 15.4649 15.1053C15.7676 14.9724 16.0737 14.855 16.3812 14.7512C16.232 14.3364 16.0497 13.9199 15.8425 13.5065C15.7318 13.5571 15.6203 13.6064 15.5083 13.6542C13.9138 14.3351 11.9299 14.6311 10.1812 14.7525ZM21.3434 9.83086C20.4844 10.5617 19.0963 11.6932 17.4524 12.6621C17.7156 13.1841 17.9462 13.7146 18.1313 14.2468L18.1478 14.2942C20.1052 13.926 21.9511 13.9921 23.1277 14.0508C23.0407 13.2991 22.8493 12.5615 22.5577 11.8598C22.2531 11.1267 21.8436 10.4434 21.3434 9.83086ZM16.9144 16.4888C17.2135 17.6082 17.4473 18.7535 17.6348 19.7962C17.7684 20.5396 17.8772 21.2231 17.9698 21.8046L17.9832 21.8889C18.0222 22.1339 18.0592 22.3658 18.0944 22.5766C17.1126 22.9776 16.0619 23.1832 15.0012 23.1818H15C13.0359 23.1818 11.2335 22.4898 9.82326 21.3363C11.0465 19.9489 13.269 18.0554 16.1958 16.7702C16.4338 16.6657 16.6737 16.5722 16.9144 16.4888ZM20.7718 20.7989C20.4648 21.1054 20.1345 21.3861 19.7845 21.6389L19.7648 21.5157C19.6726 20.936 19.5613 20.2364 19.4243 19.4745C19.2343 18.418 18.9925 17.2262 18.6766 16.0405C20.3662 15.7486 21.9719 15.8231 23.1272 15.8767L23.1358 15.8771C23.0528 16.6538 22.8586 17.4161 22.5577 18.1402C22.1443 19.135 21.5379 20.0381 20.7735 20.7972L20.7718 20.7989Z" fill="#0075B7"/>
</svg>
