<svg width="30" height="30" viewBox="0 0 30 30" fill="none" xmlns="http://www.w3.org/2000/svg">
<path d="M30 2C30 0.895431 29.1046 0 28 0H2C0.895431 0 0 0.89543 0 2V28C0 29.1046 0.89543 30 2 30H16.02V18.375H12.12V13.875H16.02V10.5C15.9392 9.70764 16.0328 8.90719 16.2941 8.15481C16.5554 7.40242 16.9781 6.71632 17.5327 6.14462C18.0872 5.57292 18.7602 5.12946 19.5042 4.84536C20.2483 4.56125 21.0455 4.44338 21.84 4.5C23.0075 4.49282 24.1744 4.55291 25.335 4.68V8.73H22.95C21.06 8.73 20.7 9.63 20.7 10.935V13.83H25.2L24.615 18.33H20.7V30H28C29.1046 30 30 29.1046 30 28V2Z" fill="#0075B7"/>
</svg>
