<svg width="30" height="30" viewBox="0 0 30 30" fill="none" xmlns="http://www.w3.org/2000/svg">
<path fill-rule="evenodd" clip-rule="evenodd" d="M2 0C0.895431 0 0 0.89543 0 2V28C0 29.1046 0.89543 30 2 30H28C29.1046 30 30 29.1046 30 28V2C30 0.895431 29.1046 0 28 0H2ZM12.5815 6.24941C14.5031 5.8172 16.4969 5.8172 18.4185 6.24941C19.5205 5.56201 20.3879 5.23636 21.0376 5.09514C21.3986 5.01665 21.6899 4.99573 21.9128 5.00069C22.0241 5.00316 22.1173 5.01205 22.1926 5.02305C22.2302 5.02854 22.2632 5.03455 22.2917 5.04049C22.3059 5.04347 22.319 5.04642 22.3309 5.04929L22.3479 5.05351L22.3557 5.05556L22.3595 5.05656L22.3613 5.05706C22.3613 5.05706 22.3631 5.05755 22.1 6.02231L22.3631 5.05755C22.6515 5.13621 22.8896 5.33979 23.0122 5.61248C23.4903 6.67663 23.5943 7.86474 23.3183 8.98622C24.0794 9.96352 24.4987 11.1711 24.5 12.4213V12.4223C24.5 14.929 23.755 16.6648 22.4546 17.7908C21.5798 18.5483 20.5277 18.9626 19.4746 19.1975C19.5132 19.4959 19.5078 19.8391 19.503 20.1454C19.5015 20.2423 19.5 20.3354 19.5 20.4223V23.9223C19.5 24.4746 19.0523 24.9223 18.5 24.9223C17.9477 24.9223 17.5 24.4746 17.5 23.9223V20.4223C17.5 20.2894 17.5017 20.1675 17.5032 20.0594L17.5035 20.0383C17.505 19.937 17.5063 19.8517 17.5063 19.7723C17.5063 19.5996 17.4997 19.5034 17.4886 19.4367C17.4796 19.3824 17.4683 19.3536 17.4534 19.3262C17.4354 19.2932 17.3943 19.2308 17.2929 19.1294C17.0206 18.8571 16.9288 18.4526 17.057 18.0895C17.1852 17.7263 17.5105 17.469 17.8935 17.428C19.2269 17.2851 20.353 16.9649 21.1454 16.2788C21.8948 15.6299 22.4998 14.516 22.5 12.4233C22.499 11.4881 22.1342 10.5899 21.4826 9.91899C21.2129 9.6412 21.1277 9.23266 21.264 8.87024C21.4826 8.28929 21.5258 7.66218 21.3961 7.06469C20.9573 7.17029 20.2178 7.4456 19.1547 8.15436C18.9174 8.31254 18.6239 8.3619 18.348 8.29003C16.4805 7.80366 14.5195 7.80366 12.652 8.29003C12.3761 8.3619 12.0826 8.31254 11.8453 8.15436C10.7822 7.4456 10.0427 7.17029 9.60392 7.06469C9.47421 7.66218 9.51744 8.28929 9.73597 8.87024C9.8723 9.23266 9.78715 9.6412 9.51739 9.91899C8.86594 10.5898 8.50107 11.4878 8.5 12.4229C8.50011 14.5158 9.10511 15.6299 9.85458 16.2788C10.647 16.9649 11.7731 17.2851 13.1065 17.428C13.4895 17.469 13.8148 17.7263 13.943 18.0895C14.0712 18.4526 13.9794 18.8571 13.7071 19.1294C13.5404 19.2961 13.4921 19.4184 13.4695 19.5362C13.4391 19.6943 13.4436 19.9085 13.4923 20.2983C13.4974 20.3394 13.5 20.3808 13.5 20.4223V21.8994C13.5004 21.9148 13.5004 21.9303 13.5 21.9457V23.9223C13.5 24.4746 13.0523 24.9223 12.5 24.9223C11.9477 24.9223 11.5 24.4746 11.5 23.9223V23.1788C10.8457 23.264 10.2553 23.2278 9.71814 23.0775C8.83746 22.8312 8.22445 22.3132 7.77039 21.791C7.49051 21.4691 7.2077 21.058 6.98812 20.7388C6.89409 20.6021 6.81166 20.4823 6.74601 20.3935C6.45627 20.0018 6.30502 19.9073 6.21783 19.8817C5.68799 19.7258 5.3848 19.17 5.54063 18.6401C5.69647 18.1103 6.25232 17.8071 6.78217 17.9629C7.54498 18.1873 8.03123 18.7678 8.35399 19.2042C8.50813 19.4126 8.6298 19.5915 8.74182 19.7562C8.9158 20.012 9.06654 20.2336 9.27961 20.4786C9.57555 20.819 9.87504 21.0447 10.2569 21.1515C10.5409 21.2309 10.9369 21.2629 11.5 21.1536V20.4835C11.4533 20.0963 11.4174 19.6473 11.4993 19.1917C10.455 18.9557 9.41301 18.542 8.54542 17.7908C7.24496 16.6648 6.5 14.929 6.5 12.4223V12.4213C6.50127 11.1711 6.9206 9.96352 7.68172 8.98622C7.4057 7.86474 7.50972 6.67663 7.98784 5.61248C8.11036 5.33979 8.34846 5.13621 8.63688 5.05755L8.9 6.02231C8.63688 5.05755 8.63869 5.05706 8.63869 5.05706L8.64053 5.05656L8.64429 5.05556L8.65213 5.05351L8.66913 5.04929C8.68104 5.04642 8.6941 5.04347 8.70832 5.04049C8.73678 5.03455 8.7698 5.02854 8.80742 5.02305C8.88274 5.01205 8.97594 5.00316 9.08716 5.00069C9.31015 4.99573 9.60141 5.01665 9.96243 5.09514C10.6121 5.23636 11.4795 5.56201 12.5815 6.24941Z" fill="#0075B7"/>
</svg>
