<svg width="30" height="30" viewBox="0 0 30 30" fill="none" xmlns="http://www.w3.org/2000/svg">
<path d="M15 11.5C14.3078 11.5 13.6311 11.7053 13.0555 12.0899C12.4799 12.4744 12.0313 13.0211 11.7664 13.6606C11.5015 14.3001 11.4322 15.0039 11.5673 15.6828C11.7023 16.3617 12.0356 16.9854 12.5251 17.4749C13.0146 17.9644 13.6383 18.2977 14.3172 18.4327C14.9961 18.5678 15.6999 18.4985 16.3394 18.2336C16.9789 17.9687 17.5256 17.5201 17.9101 16.9445C18.2947 16.3689 18.5 15.6922 18.5 15C18.5 14.072 18.1314 13.182 17.4754 12.5256C16.8193 11.8693 15.9294 11.5004 15.0014 11.5H15Z" fill="#0075B7"/>
<path fill-rule="evenodd" clip-rule="evenodd" d="M23.5567 8.52647C23.3742 8.053 23.0945 7.62302 22.7357 7.26422C22.3768 6.90541 21.9468 6.62575 21.4733 6.44324C20.8202 6.20181 20.1305 6.07389 19.4342 6.06501C18.2758 6.01182 17.9271 6 14.997 6C12.067 6 11.7198 6.01182 10.5643 6.06501C9.86798 6.07248 9.17819 6.19993 8.5252 6.44176C7.56625 6.81113 6.8112 7.56759 6.4418 8.52499C6.19947 9.17951 6.0724 9.86949 6.06354 10.5639C6.01034 11.7222 6 12.0694 6 15.0007C6 17.932 6.01034 18.2807 6.06354 19.4376C6.07092 20.1335 6.19948 20.8234 6.44032 21.4765C6.62292 21.9499 6.90264 22.3798 7.26146 22.7386C7.62029 23.0974 8.05026 23.3771 8.52372 23.5597C9.1783 23.8005 9.86833 23.9291 10.5628 23.9365C11.7197 23.9897 12.067 24 14.9985 24C17.9301 24 18.2788 23.9897 19.4357 23.9365C20.1321 23.9284 20.8219 23.8005 21.4748 23.5582C21.9483 23.3756 22.3782 23.096 22.7371 22.7372C23.0959 22.3784 23.3756 21.9484 23.5582 21.475C23.8005 20.8234 23.9276 20.1335 23.9365 19.4361C23.9897 18.2792 24 17.932 24 15.0007C24 12.0694 23.9897 11.7222 23.9365 10.5654C23.9284 9.86906 23.8005 9.17934 23.5582 8.52647H23.5567ZM14.997 20.6373C14.2568 20.6373 13.5238 20.4915 12.8399 20.2082C12.1559 19.925 11.5345 19.5098 11.0111 18.9864C10.4876 18.463 10.0724 17.8416 9.78913 17.1577C9.50585 16.4739 9.36004 15.7409 9.36004 15.0007C9.36004 14.2605 9.50585 13.5276 9.78913 12.8437C10.0724 12.1599 10.4876 11.5385 11.0111 11.0151C11.5345 10.4917 12.1559 10.0765 12.8399 9.79325C13.5238 9.50999 14.2568 9.3642 14.997 9.3642C16.4921 9.3642 17.9259 9.95804 18.983 11.0151C20.0402 12.0722 20.634 13.5058 20.634 15.0007C20.634 16.4956 20.0402 17.9293 18.983 18.9864C17.9259 20.0434 16.4921 20.6373 14.997 20.6373ZM20.8572 10.4575C20.5154 10.4461 20.1915 10.3023 19.9538 10.0565C19.7162 9.81076 19.5833 9.48225 19.5833 9.14036C19.5833 8.79847 19.7162 8.46996 19.9538 8.22419C20.1915 7.97843 20.5154 7.83464 20.8572 7.8232C21.1989 7.83364 21.5248 7.9765 21.7632 8.22161C22.0016 8.46671 22.1354 8.79487 22.1364 9.13679C22.1373 9.4787 22.0054 9.80761 21.7683 10.054C21.5313 10.3005 21.2078 10.4452 20.866 10.4575H20.8572Z" fill="#0075B7"/>
<path fill-rule="evenodd" clip-rule="evenodd" d="M0 2C0 0.89543 0.895431 0 2 0H28C29.1046 0 30 0.895431 30 2V28C30 29.1046 29.1046 30 28 30H2C0.89543 30 0 29.1046 0 28V2ZM26.0776 19.5945C26.0598 20.5194 25.8848 21.4344 25.5601 22.3006C25.2737 23.0409 24.8358 23.7132 24.2745 24.2745C23.7132 24.8358 23.0409 25.2737 22.3006 25.5601C21.4348 25.8842 20.5203 26.0592 19.5961 26.0775C18.4066 26.133 18.0271 26.1451 15.0001 26.1451C11.9731 26.1451 11.5951 26.1315 10.4056 26.0775C9.4813 26.0591 8.56685 25.8841 7.70107 25.5601C6.96043 25.2739 6.28775 24.8361 5.72619 24.2748C5.16462 23.7135 4.72655 23.0411 4.44007 22.3006C4.11572 21.4343 3.94074 20.5193 3.92257 19.5945C3.87007 18.4065 3.85507 18.0271 3.85507 15C3.85507 11.973 3.86857 11.5936 3.92257 10.4056C3.94074 9.48077 4.11572 8.56578 4.44007 7.69955C4.72647 6.95899 5.16451 6.28648 5.72609 5.72516C6.28767 5.16384 6.96038 4.72611 7.70107 4.44005C8.56682 4.11587 9.48129 3.94089 10.4056 3.92255C11.5951 3.86705 11.9761 3.85505 15.0016 3.85505C18.0271 3.85505 18.4066 3.86855 19.5961 3.92255C20.5209 3.94049 21.4359 4.11548 22.3021 4.44005C23.0421 4.72662 23.7141 5.16457 24.2752 5.72585C24.8362 6.28713 25.2738 6.95938 25.5601 7.69955C25.8856 8.56655 26.0596 9.48005 26.0776 10.4056C26.1316 11.5936 26.1451 11.973 26.1451 15C26.1451 18.0271 26.1316 18.405 26.0776 19.5945Z" fill="#0075B7"/>
</svg>
