<svg width="30" height="30" viewBox="0 0 30 30" fill="none" xmlns="http://www.w3.org/2000/svg">
<path d="M16.2206 13.4831V13.53H16.1906L16.2206 13.4831Z" fill="#0075B7"/>
<path fill-rule="evenodd" clip-rule="evenodd" d="M2 0C0.895431 0 0 0.89543 0 2V28C0 29.1046 0.89543 30 2 30H28C29.1046 30 30 29.1046 30 28V2C30 0.895431 29.1046 0 28 0H2ZM9.26812 25.1138V11.5669H4.76625V25.1138H9.26812ZM7.01813 9.71627C8.5875 9.71627 9.56437 8.67752 9.56437 7.37627C9.53625 6.04689 8.58938 5.03627 7.04813 5.03627C5.50688 5.03627 4.5 6.04877 4.5 7.37627C4.5 8.67752 5.47687 9.71627 6.98812 9.71627H7.01813ZM16.2206 25.1138V17.5481C16.2206 17.1431 16.2506 16.7381 16.3706 16.4494C16.695 15.6413 17.4356 14.8031 18.6806 14.8031C20.31 14.8031 20.9606 16.0444 20.9606 17.8669V25.1138H25.4625V17.3438C25.4625 13.1813 23.2425 11.2463 20.28 11.2463C17.8913 11.2463 16.8206 12.5588 16.2206 13.4831V11.5669H11.7206C11.7769 12.8381 11.7206 25.1138 11.7206 25.1138H16.2206Z" fill="#0075B7"/>
</svg>
