<svg width="30" height="30" viewBox="0 0 30 30" fill="none" xmlns="http://www.w3.org/2000/svg">
<path fill-rule="evenodd" clip-rule="evenodd" d="M0 2C0 0.89543 0.895431 0 2 0H28C29.1046 0 30 0.895431 30 2V28C30 29.1046 29.1046 30 28 30H2C0.89543 30 0 29.1046 0 28V2ZM23.5816 5.19306C23.8329 5.08656 24.0996 5.02205 24.3713 5.00205C24.6884 4.98581 25.003 5.06639 25.2743 5.23332C25.5975 5.43839 25.8332 5.75826 25.9353 6.13016C26.0344 6.49763 26.0115 6.87624 25.9218 7.28054L22.7615 23.666L22.7319 23.7431C22.7319 23.7431 22.5533 24.2219 22.0938 24.5962C21.6376 24.968 20.7743 25.1787 19.922 24.8001L19.8289 24.7598L15.7394 21.5845L13.2994 23.833L13.2697 23.857C13.2697 23.857 12.7442 24.2682 12.0899 24.0677L12.084 24.0668C12.0446 24.0605 12.0223 24.057 11.9901 24.048C11.9861 24.0466 11.982 24.0439 11.9776 24.041C11.9717 24.0371 11.9652 24.0329 11.9579 24.0309L12.0002 24.0412C11.9275 24.0194 11.8576 23.989 11.792 23.9504C11.6659 23.8698 11.561 23.7696 11.4712 23.6497C11.2859 23.415 11.1378 23.1075 10.9854 22.6158C10.8243 22.1019 10.3452 20.5162 9.96282 19.2506C9.73268 18.4888 9.53759 17.8431 9.46794 17.6168L5.33522 16.2078H5.32845C5.32845 16.2078 5.05424 16.111 4.76648 15.9037C4.48211 15.699 4.08601 15.3281 4.00984 14.7096C3.96329 14.3439 4.08855 13.9901 4.24428 13.7588C4.37544 13.5646 4.54417 13.3994 4.74024 13.2731C5.00261 13.0912 5.25572 12.9905 5.33559 12.9611C5.70743 12.8024 9.91851 11.0051 14.199 9.18128L20.4468 6.51819C20.7656 6.38284 21.0645 6.25591 21.3416 6.13826C22.5794 5.61261 23.3812 5.27215 23.5783 5.19306H23.5816ZM24.2851 6.79389C24.285 6.78422 24.2848 6.77363 24.2858 6.75803C24.2563 6.75803 24.2558 6.75833 24.2459 6.76426C24.2391 6.76834 24.2278 6.77511 24.1995 6.7863C23.1659 7.22058 22.1333 7.65744 21.1018 8.09686C19.5868 8.74452 17.6755 9.55924 15.7243 10.391C15.4356 10.514 15.146 10.6375 14.8566 10.7608C10.3735 12.671 5.96322 14.552 5.96322 14.552L5.93698 14.5614L5.9099 14.5751C5.90164 14.5791 5.89316 14.5825 5.88451 14.5854L5.8972 14.588V14.5914L10.8365 16.2746L10.8399 16.2917L21.145 9.83057C21.145 9.83057 21.6774 9.5556 21.6537 9.94449C21.6537 9.94449 21.7662 10.0113 21.4294 10.3282L13.257 18.0374L12.6223 22.1404L15.6437 19.3531L20.6457 23.2343C20.9207 23.3448 20.9732 23.3114 21.0392 23.2583C21.0938 23.2142 21.1182 23.1701 21.1325 23.1442C21.1346 23.1404 21.1365 23.137 21.1382 23.134L24.2689 6.91906V6.90964C24.2857 6.83595 24.2855 6.81769 24.2851 6.79389Z" fill="#0075B7"/>
</svg>
