<svg width="30" height="30" viewBox="0 0 30 30" fill="none" xmlns="http://www.w3.org/2000/svg">
<path fill-rule="evenodd" clip-rule="evenodd" d="M2 0C0.89543 0 0 0.895431 0 2V28C0 29.1046 0.895432 30 2 30H28C29.1046 30 30 29.1046 30 28V2C30 0.89543 29.1046 0 28 0H2ZM7.67422 4.96473L5.70514 6.9326C3.70534 8.93669 2.14763 14.1565 8.99828 21.0117C12.3079 24.3219 15.522 26 18.5541 26C21.0991 26 22.5592 24.8147 23.0693 24.3043L25.0372 22.3364C25.6537 21.7187 25.9999 20.8815 25.9999 20.0086C25.9999 19.1357 25.6537 18.2985 25.0372 17.6807L23.2974 15.94C22.6765 15.3177 21.8494 14.9753 20.9707 14.9753C20.0921 14.9753 19.2649 15.3177 18.644 15.94L17.1313 17.4535L12.5547 12.8746L14.0674 11.3611C14.6839 10.7434 15.0301 9.90617 15.0301 9.03328C15.0301 8.16038 14.6839 7.32315 14.0674 6.70541L12.3276 4.96473C11.7067 4.34243 10.8796 4 10.0009 4C9.12224 4 8.29511 4.34243 7.67422 4.96473ZM10.7765 6.51664L12.5163 8.25732C12.6183 8.35916 12.6991 8.48011 12.7543 8.61326C12.8095 8.7464 12.8379 8.88913 12.8379 9.03328C12.8379 9.17742 12.8095 9.32015 12.7543 9.45329C12.6991 9.58644 12.6183 9.70739 12.5163 9.80923L11.3294 10.9968L8.03733 7.70417L9.22535 6.51664C9.32699 6.41436 9.44784 6.3332 9.58094 6.27782C9.71404 6.22244 9.85677 6.19393 10.0009 6.19393C10.1451 6.19393 10.2878 6.22244 10.4209 6.27782C10.554 6.3332 10.6748 6.41436 10.7765 6.51664ZM23.7242 20.4286C23.669 20.5617 23.5881 20.6827 23.4861 20.7845L22.2981 21.9721L19.0082 18.6795L20.1952 17.4919C20.2968 17.3897 20.4177 17.3085 20.5508 17.2531C20.6839 17.1977 20.8266 17.1692 20.9707 17.1692C21.1149 17.1692 21.2576 17.1977 21.3907 17.2531C21.5238 17.3085 21.6447 17.3897 21.7463 17.4919L23.4861 19.2326C23.5881 19.3345 23.669 19.4554 23.7242 19.5886C23.7793 19.7217 23.8078 19.8644 23.8078 20.0086C23.8078 20.1527 23.7793 20.2955 23.7242 20.4286ZM18.5541 23.8049C16.6388 23.8049 13.9314 22.8424 10.5494 19.4598C4.5555 13.4618 6.16149 9.58204 7.26176 8.48012L10.5538 11.7727L10.228 12.0987C10.126 12.2005 10.0451 12.3215 9.98996 12.4546C9.93477 12.5878 9.90636 12.7305 9.90636 12.8746C9.90636 13.0188 9.93477 13.1615 9.98996 13.2946C10.0451 13.4278 10.126 13.5487 10.228 13.6506L16.3557 19.7814C16.4574 19.8837 16.5782 19.9648 16.7113 20.0202C16.8444 20.0756 16.9871 20.1041 17.1313 20.1041C17.2755 20.1041 17.4182 20.0756 17.5513 20.0202C17.6844 19.9648 17.8052 19.8837 17.9069 19.7814L18.2327 19.4554C18.2327 19.4554 21.5225 22.748 21.5181 22.7524C21.0409 23.2309 20.0339 23.8049 18.5541 23.8049Z" fill="#0075B7"/>
</svg>
