<svg width="121" height="121" viewBox="0 0 121 121" fill="none" xmlns="http://www.w3.org/2000/svg">
<rect width="5" height="5" fill="#0075B7"/>
<rect x="29" width="5" height="5" fill="#0075B7"/>
<rect x="58" width="5" height="5" fill="#0075B7"/>
<rect x="87" width="5" height="5" fill="#0075B7"/>
<rect x="116" width="5" height="5" fill="#0075B7"/>
<rect y="29" width="5" height="5" fill="#0075B7"/>
<rect x="29" y="29" width="5" height="5" fill="#0075B7"/>
<rect x="58" y="29" width="5" height="5" fill="#0075B7"/>
<rect x="87" y="29" width="5" height="5" fill="#0075B7"/>
<rect x="116" y="29" width="5" height="5" fill="#0075B7"/>
<rect y="58" width="5" height="5" fill="#0075B7"/>
<rect x="29" y="58" width="5" height="5" fill="#0075B7"/>
<rect x="58" y="58" width="5" height="5" fill="#0075B7"/>
<rect x="87" y="58" width="5" height="5" fill="#0075B7"/>
<rect x="116" y="58" width="5" height="5" fill="#0075B7"/>
<rect y="87" width="5" height="5" fill="#0075B7"/>
<rect x="29" y="87" width="5" height="5" fill="#0075B7"/>
<rect x="58" y="87" width="5" height="5" fill="#0075B7"/>
<rect x="87" y="87" width="5" height="5" fill="#0075B7"/>
<rect x="116" y="87" width="5" height="5" fill="#0075B7"/>
<rect y="116" width="5" height="5" fill="#0075B7"/>
<rect x="29" y="116" width="5" height="5" fill="#0075B7"/>
<rect x="58" y="116" width="5" height="5" fill="#0075B7"/>
<rect x="87" y="116" width="5" height="5" fill="#0075B7"/>
<rect x="116" y="116" width="5" height="5" fill="#0075B7"/>
</svg>
