<svg width="56" height="23" viewBox="0 0 56 23" fill="none" xmlns="http://www.w3.org/2000/svg">
<path d="M12.874 0.612413C13.684 1.42896 13.684 2.75285 12.874 3.56941L5.00726 11.5L12.874 19.4306C13.684 20.2471 13.684 21.571 12.874 22.3876C12.064 23.2041 10.7508 23.2041 9.94082 22.3876L0.607482 12.9785C-0.202494 12.1619 -0.202494 10.8381 0.607482 10.0215L9.94082 0.612413C10.7508 -0.204138 12.064 -0.204138 12.874 0.612413Z" fill="#C7DAE3"/>
<path d="M17.9592 17.5576C17.8199 17.6981 17.7232 17.8757 17.6804 18.0696L16.9466 21.3956C16.7817 22.1427 17.4429 22.8093 18.184 22.6431L21.4829 21.9034C21.6755 21.8602 21.8518 21.7626 21.9913 21.6219L35.0729 8.42399C35.4776 8.01567 35.4775 7.35395 35.0726 6.94578L32.5074 4.35972C32.1023 3.95133 31.4454 3.95146 31.0405 4.36L17.9592 17.5576Z" fill="#C7DAE3"/>
<path d="M38.6699 17.6543C39.0769 18.0622 39.0778 18.7257 38.672 19.1348L35.5713 22.2607C35.1663 22.669 34.5097 22.669 34.1047 22.2607L29.9805 18.1031C29.5755 17.6948 29.5755 17.0328 29.9805 16.6246L30.6132 15.9867C30.9098 15.6877 31.3906 15.6877 31.6872 15.9867C31.9843 16.2862 32.466 16.2857 32.7624 15.9856L34.1477 14.5834C34.5525 14.1737 35.2102 14.1731 35.6158 14.5819L35.6642 14.6307C36.0731 15.043 36.0685 15.7129 35.6539 16.1194L35.4218 16.347C35.1035 16.6591 35.1074 17.1757 35.4304 17.4828C35.7358 17.7733 36.2144 17.768 36.5134 17.4708L36.7732 17.2126C37.1782 16.8101 37.8292 16.8115 38.2325 17.2157L38.6699 17.6543Z" fill="#C7DAE3"/>
<path d="M22.936 9.51295C22.5304 9.91176 21.8824 9.90864 21.4807 9.50594L17.3301 5.34574C16.9231 4.93782 16.9222 4.27423 17.328 3.86512L20.4266 0.741345C20.8324 0.332252 21.4906 0.333192 21.8953 0.743442L22.3266 1.18072C22.7291 1.58875 22.7288 2.24793 22.326 2.65563L20.971 4.0272C20.6551 4.34689 20.6569 4.86437 20.9748 5.18192C21.292 5.49871 21.8039 5.49646 22.1183 5.17688L23.4607 3.81264C23.8652 3.40154 24.5241 3.40019 24.9302 3.80964L24.9848 3.86464C25.3908 4.27394 25.3896 4.9379 24.9822 5.34574L24.731 5.59716C24.4347 5.89377 24.4339 6.37664 24.7291 6.67431C25.0263 6.97385 25.0233 7.46042 24.7225 7.75621L22.936 9.51295Z" fill="#C7DAE3"/>
<path d="M38.9236 4.50897C39.3429 4.08626 39.3429 3.42509 38.9236 2.9807L36.4077 0.487764C36.0099 0.0650496 35.3111 0.0650496 34.8917 0.487764L33.6508 1.73203C33.2439 2.13997 33.243 2.80347 33.6488 3.21253L36.206 5.79058C36.6134 6.20119 37.2745 6.1985 37.6785 5.78458L38.9236 4.50897Z" fill="#C7DAE3"/>
<path d="M43.126 3.56941C42.316 2.75285 42.316 1.42896 43.126 0.612413C43.936 -0.204138 45.2492 -0.204138 46.0592 0.612413L55.3925 10.0215C56.2025 10.8381 56.2025 12.1619 55.3925 12.9785L46.0592 22.3876C45.2492 23.2041 43.936 23.2041 43.126 22.3876C42.316 21.571 42.316 20.2471 43.126 19.4306L50.9927 11.5L43.126 3.56941Z" fill="#C7DAE3"/>
</svg>
