<svg width="14" height="14" viewBox="0 0 14 14" fill="none" xmlns="http://www.w3.org/2000/svg">
<path d="M7.85951 0.314916C7.61376 0.110813 7.31129 0 6.99993 0C6.68858 0 6.3861 0.110813 6.14035 0.314916L0.271667 5.1875C-0.254722 5.62618 0.0350719 6.52671 0.702158 6.52671H1.40004L1.39621 12.25C1.16888 12.25 0.950859 12.3422 0.790114 12.5063C0.629368 12.6704 0.539062 12.8929 0.539062 13.125C0.539062 13.3571 0.629368 13.5796 0.790114 13.7437C0.950859 13.9078 1.16888 14 1.39621 14H5.59996V9.51603C5.59996 9.11962 5.74746 8.73945 6.01 8.45914C6.27255 8.17884 6.62864 8.02137 6.99993 8.02137C7.37123 8.02137 7.72731 8.17884 7.98986 8.45914C8.25241 8.73945 8.3999 9.11962 8.3999 9.51603V14H12.5977C12.825 14 13.0431 13.9078 13.2038 13.7437C13.3646 13.5796 13.4549 13.3571 13.4549 13.125C13.4549 12.8929 13.3646 12.6704 13.2038 12.5063C13.0436 12.3427 12.8264 12.2506 12.5998 12.25V6.52671H13.2977C13.9641 6.52671 14.2553 5.62618 13.7282 5.18825L7.85951 0.314916Z" fill="#C7DAE3"/>
</svg>
