<svg width="31" height="30" viewBox="0 0 31 30" fill="none" xmlns="http://www.w3.org/2000/svg">
<path fill-rule="evenodd" clip-rule="evenodd" d="M28.5 0C29.6046 0 30.5 0.895431 30.5 2V28C30.5 29.1046 29.6046 30 28.5 30H2.5C1.39543 30 0.5 29.1046 0.5 28V2C0.5 0.89543 1.39543 0 2.5 0H28.5ZM6.70012 6H24.3001C25.5101 6 26.5001 7.0125 26.5001 8.25V21.75C26.5001 22.9875 25.5101 24 24.3001 24H6.70012C5.49012 24 4.50012 22.9875 4.50012 21.75L4.51112 8.25C4.51112 7.0125 5.49012 6 6.70012 6ZM6.70012 20.625C6.70012 21.2437 7.19512 21.75 7.80012 21.75H23.2001C23.8051 21.75 24.3001 21.2437 24.3001 20.625V10.5L16.6661 15.3825C15.9511 15.8438 15.0491 15.8438 14.3341 15.3825L6.70012 10.5V20.625ZM6.70012 8.25L15.5001 13.875L24.3001 8.25H6.70012Z" fill="#0075B7"/>
</svg>
