<svg width="12" height="14" viewBox="0 0 12 14" fill="none" xmlns="http://www.w3.org/2000/svg">
<path fill-rule="evenodd" clip-rule="evenodd" d="M0.857143 1.75C0.857143 1.28587 1.03775 0.840752 1.35925 0.512563C1.68074 0.184374 2.11677 0 2.57143 0H9.42857C9.88323 0 10.3193 0.184374 10.6408 0.512563C10.9622 0.840752 11.1429 1.28587 11.1429 1.75V12.25C11.3702 12.25 11.5882 12.3422 11.7489 12.5063C11.9097 12.6704 12 12.8929 12 13.125C12 13.3571 11.9097 13.5796 11.7489 13.7437C11.5882 13.9078 11.3702 14 11.1429 14C10 14 8.53348 14 7.39062 14C7.39062 13.125 7.39062 12.25 7.39062 11.375C7.39062 11.1429 7.30032 10.9204 7.13957 10.7563C6.97883 10.5922 6.76081 10.5 6.53348 10.5H5.47433C5.247 10.5 5.02899 10.5922 4.86824 10.7563C4.70749 10.9204 4.61719 11.1429 4.61719 11.375C4.61719 12.25 4.61719 13.125 4.61719 14C3.47433 14 2 14 0.857143 14C0.629814 14 0.411797 13.9078 0.251051 13.7437C0.0903058 13.5796 0 13.3571 0 13.125C0 12.8929 0.0903058 12.6704 0.251051 12.5063C0.411797 12.3422 0.629814 12.25 0.857143 12.25V1.75ZM3.42857 2.625H5.14286V4.375H3.42857V2.625ZM5.14286 6.125H3.42857V7.875H5.14286V6.125ZM6.85714 2.625H8.57143V4.375H6.85714V2.625ZM8.57143 6.125H6.85714V7.875H8.57143V6.125Z" fill="#C7DAE3"/>
</svg>
