<svg width="30" height="30" viewBox="0 0 30 30" fill="none" xmlns="http://www.w3.org/2000/svg">
<path fill-rule="evenodd" clip-rule="evenodd" d="M28 0C29.1046 0 30 0.895431 30 2V28C30 29.1046 29.1046 30 28 30H2C0.89543 30 0 29.1046 0 28V2C0 0.89543 0.895431 0 2 0H28ZM8.93681 16.4356C9.05402 16.3183 9.21299 16.2525 9.37875 16.2525H10.625C11.1223 16.2525 11.5992 16.45 11.9508 16.8017C12.3025 17.1533 12.5 17.6302 12.5 18.1275C12.5 18.6248 12.3025 19.1017 11.9508 19.4533C11.5992 19.805 11.1223 20.0025 10.625 20.0025H10.0037V20.6275C10.0037 20.7933 9.9379 20.9522 9.82069 21.0694C9.70348 21.1867 9.54451 21.2525 9.37875 21.2525C9.21299 21.2525 9.05402 21.1867 8.93681 21.0694C8.8196 20.9522 8.75375 20.7933 8.75375 20.6275V16.8775C8.75375 16.7117 8.8196 16.5528 8.93681 16.4356ZM10.0037 18.7525H10.625C10.7908 18.7525 10.9497 18.6867 11.0669 18.5694C11.1842 18.4522 11.25 18.2933 11.25 18.1275C11.25 17.9617 11.1842 17.8028 11.0669 17.6856C10.9497 17.5683 10.7908 17.5025 10.625 17.5025H10.0037V18.7525ZM18.9306 16.4356C18.8133 16.5528 18.7475 16.7117 18.7475 16.8775L18.7437 19.3787V19.3813L18.7475 20.6287C18.7478 20.7945 18.814 20.9534 18.9314 21.0703C19.0489 21.1873 19.208 21.2528 19.3737 21.2525C19.5395 21.2522 19.6983 21.186 19.8153 21.0686C19.8732 21.0104 19.9191 20.9414 19.9504 20.8655C19.9817 20.7896 19.9977 20.7083 19.9975 20.6262L19.995 20.005H21.2537C21.4195 20.005 21.5785 19.9392 21.6957 19.8219C21.8129 19.7047 21.8787 19.5458 21.8787 19.38C21.8787 19.2142 21.8129 19.0553 21.6957 18.9381C21.5785 18.8208 21.4195 18.755 21.2537 18.755H19.995L19.9963 17.5025H21.2537C21.4195 17.5025 21.5785 17.4367 21.6957 17.3194C21.8129 17.2022 21.8787 17.0433 21.8787 16.8775C21.8787 16.7117 21.8129 16.5528 21.6957 16.4356C21.5785 16.3183 21.4195 16.2525 21.2537 16.2525H19.3725C19.2067 16.2525 19.0478 16.3183 18.9306 16.4356ZM13.9331 16.4356C14.0503 16.3183 14.2092 16.2525 14.375 16.2525H14.9975C15.6605 16.2525 16.2964 16.5159 16.7653 16.9847C17.2341 17.4536 17.4975 18.0895 17.4975 18.7525C17.4975 19.4155 17.2341 20.0514 16.7653 20.5203C16.2964 20.9891 15.6605 21.2525 14.9975 21.2525H14.375C14.2092 21.2525 14.0503 21.1867 13.9331 21.0694C13.8158 20.9522 13.75 20.7933 13.75 20.6275V16.8775C13.75 16.7117 13.8158 16.5528 13.9331 16.4356ZM15.8839 17.8686C15.6495 17.6342 15.3315 17.5025 15 17.5025V20.0025C15.3315 20.0025 15.6495 19.8708 15.8839 19.6364C16.1183 19.402 16.25 19.084 16.25 18.7525C16.25 18.421 16.1183 18.103 15.8839 17.8686ZM25 23.545V25C25 25.663 24.7366 26.2989 24.2678 26.7678C23.7989 27.2366 23.163 27.5 22.5 27.5H7.5C6.83696 27.5 6.20107 27.2366 5.73223 26.7678C5.26339 26.2989 5 25.663 5 25V23.545C4.26125 23.1925 3.75 22.44 3.75 21.5675V15.9375C3.75 15.065 4.26125 14.3113 5 13.96V5C5 4.33696 5.26339 3.70107 5.73223 3.23223C6.20107 2.76339 6.83696 2.5 7.5 2.5H15.215C15.2493 2.50059 15.2836 2.50351 15.3175 2.50875C15.3419 2.51297 15.3665 2.51589 15.3912 2.5175C15.6589 2.53232 15.9223 2.59058 16.1712 2.69C16.2393 2.71866 16.3051 2.75646 16.3697 2.79357L16.3787 2.79875L16.4412 2.835L16.5013 2.865C16.5358 2.88097 16.5692 2.89935 16.6012 2.92C16.6975 2.98866 16.789 3.06384 16.875 3.145C16.8895 3.15805 16.9045 3.17056 16.92 3.1825C16.9415 3.19783 16.9619 3.21453 16.9813 3.2325L24.2675 10.5175C24.7364 10.9862 24.9999 11.622 25 12.285V13.96C25.7388 14.3125 26.25 15.065 26.25 15.9375V21.5675C26.25 22.44 25.7388 23.1938 25 23.545ZM7.05806 25.4419C7.17527 25.5592 7.33424 25.625 7.5 25.625H22.5C22.6658 25.625 22.8247 25.5592 22.9419 25.4419C23.0592 25.3247 23.125 25.1658 23.125 25V23.755H6.875V25C6.875 25.1658 6.94085 25.3247 7.05806 25.4419ZM23.125 13.75V12.5H17.5C16.837 12.5 16.2011 12.2366 15.7322 11.7678C15.2634 11.2989 15 10.663 15 10V4.375H7.5C7.33424 4.375 7.17527 4.44085 7.05806 4.55806C6.94085 4.67527 6.875 4.83424 6.875 5V13.75H23.125ZM17.5 10.625H21.7225L16.875 5.77625V10C16.875 10.1658 16.9408 10.3247 17.0581 10.4419C17.1753 10.5592 17.3342 10.625 17.5 10.625ZM24.0625 15.625H5.9375C5.85462 15.625 5.77513 15.6579 5.71653 15.7165C5.65792 15.7751 5.625 15.8546 5.625 15.9375V21.5675C5.625 21.6504 5.65792 21.7299 5.71653 21.7885C5.77513 21.8471 5.85462 21.88 5.9375 21.88H24.0625C24.1454 21.88 24.2249 21.8471 24.2835 21.7885C24.3421 21.7299 24.375 21.6504 24.375 21.5675V15.9375C24.375 15.8546 24.3421 15.7751 24.2835 15.7165C24.2249 15.6579 24.1454 15.625 24.0625 15.625Z" fill="#0075B7"/>
</svg>
